<svg
  width="176"
  height="119"
  viewBox="0 0 176 119"
  fill="none"
  xmlns="http://www.w3.org/2000/svg"
>
  <defs>
    <linearGradient id="wizeline-favicon-gradient" x1="192.592" y1="215.13" x2="116.682" y2="6.55" gradientUnits="userSpaceOnUse">
      <stop offset="0.55" stop-color="#e93d44" />
      <stop offset="1" stop-color="#701d21" />
    </linearGradient>
  </defs>
  <path
    d="m166.102 0h-29.11c-2.436.00066934-4.823.679211-6.895 1.95966-2.071 1.28044-3.746 3.11225-4.835 5.29034l-3 5.93c.694-.0016 1.378.1745 1.985.5116.607.3372 1.118.8241 1.484 1.4145s.574 1.2646.606 1.9584c.032.6939-.115 1.3843-.425 2.0055l-36.5604 73.16 8.63 17.26c1.1952 2.441 2.9824 4.543 5.1994 6.115s4.792 2.564 7.491 2.885c3.239.345 6.507-.306 9.366-1.868s5.174-3.959 6.634-6.872l47.95-95.89c.727-1.4567 1.071-3.0749 1-4.70157-.072-1.62671-.557-3.20832-1.41-4.59547-.853-1.38716-2.045-2.53408-3.464-3.33246-1.419-.798388-3.018-1.22188313-4.646-1.2305z"
    fill="url(#wizeline-favicon-gradient)"
  />
  <path
    d="m115.722.00000396h-16.2697c-3.0303-.00210821-6.0014.83847804-8.5815 2.42782604-2.58 1.58934-4.6673 3.86483-6.0285 6.57217l-18.55 37.1c-.3059.6105-.7757 1.1238-1.3567 1.4825-.581.3588-1.2504.5488-1.9333.5488-.6828 0-1.3522-.19-1.9332-.5488-.5811-.3587-1.0508-.872-1.3568-1.4825l-14.99-29.89c-.4581-.9053-1.1591-1.6653-2.0244-2.1951s-1.8609-.8085-2.8756-.8049h-35.17997c-.79159-.0004-1.57011.2017-2.26152.5871-.69142.3855-1.27274.9414-1.688664 1.6149-.415928.6735-.6526394 1.4422-.68761407 2.233-.03497463.7908.13294507 1.5774.48779307 2.285l44.919975 89.85c1.3311 2.652 3.3733 4.882 5.8986 6.44s5.4342 2.383 8.4014 2.383c2.9673 0 5.8761-.825 8.4014-2.383s4.5676-3.788 5.8986-6.44l48.2797-96.57 3-5.93c1.084-2.17914 2.751-4.01408 4.818-5.29971 2.066-1.285626 4.449-1.9712697 6.882-1.98028604z"
    fill="#e93d44"
  />
</svg>
