<?xml version="1.0" encoding="UTF-8"?>
<svg id="Capa_1" xmlns="http://www.w3.org/2000/svg" version="1.1" viewBox="0 0 500 199.78">
  <!-- Generator: Adobe Illustrator 30.4.0, SVG Export Plug-In . SVG Version: 2.1.4 Build 226)  -->
  <defs>
    <style>
      .st0 {
        fill-rule: evenodd;
      }

      .st0, .st1 {
        fill: #e93d44;
      }

      .st2 {
        fill: #211e1e;
      }
    </style>
  </defs>
  <g>
    <path class="st1" d="M260.63,126.08h-26.35l-3.76,16.6h-15.28l18.49-77.49h27.45l18.49,77.49h-15.28l-3.76-16.6ZM237.39,112.13h20.04l-8.97-39.63h-1.99l-9.08,39.63Z"/>
    <path class="st1" d="M296.72,65.2h51.81v13.95h-18.6v49.59h18.6v13.95h-51.81v-13.95h18.6v-49.59h-18.6v-13.95Z"/>
  </g>
  <g>
    <g>
      <path class="st0" d="M153.91,65.9c-1.05-.38-1.94-1.12-2.52-2.08l-10.03-.02v6.69h6.8c.28,0,.56.06.81.19.25.12.47.3.64.53l3.67,4.75c.96-.47,2.04-.62,3.09-.42,1.05.2,2,.74,2.72,1.53.72.79,1.15,1.8,1.25,2.86.09,1.06-.16,2.13-.73,3.03-.57.9-1.41,1.6-2.41,1.98-1,.38-2.09.42-3.12.12-1.02-.3-1.92-.93-2.56-1.78-.64-.86-.97-1.9-.96-2.97,0-.52.1-1.04.28-1.53l-3.57-4.6h-5.84v5.07c0,1.34.31,2.65.92,3.85.6,1.19,1.48,2.23,2.55,3.02,1.08.79,2.32,1.32,3.64,1.54,1.32.22,2.67.13,3.94-.27.46-.14.97-.1,1.4.13.43.23.75.61.9,1.08.14.46.1.97-.13,1.4-.23.43-.62.75-1.08.9-2.59.8-5.37.72-7.9-.24-2.53-.96-4.67-2.74-6.08-5.05-1.32,2.19-3.29,3.9-5.64,4.91-2.35,1-4.95,1.24-7.44.68-2.49-.56-4.74-1.89-6.44-3.8-1.69-1.91-2.74-4.31-3-6.85-.07-.02-.13-.05-.2-.07-.06-.02-.11-.05-.17-.06-.31-.11-.54-.2-.91-.35-.36-.15-.82-.38-1.06-.51-.24-.13-.48-.27-.71-.41-.38-.23-.75-.49-1.1-.77-.03-.02-.07-.05-.11-.08-.09-.07-.18-.14-.24-.16-.08-.03-.08-.11-.08-.11-2.24-1.96-3.68-4.67-4.05-7.63-.37-2.95.37-5.94,2.06-8.39-.96-1.38-1.62-2.95-1.94-4.61-.32-1.65-.29-3.36.09-5,.38-1.64,1.09-3.19,2.1-4.54,1.01-1.35,2.28-2.48,3.75-3.31.03-.02.06-.04.08-.07.02-.02.05-.05.08-.07l.37-.17.45-.21c.45-.21.92-.39,1.39-.54l.21-.08c.27-2.53,1.32-4.9,3.01-6.8,1.69-1.89,3.93-3.21,6.41-3.77,2.48-.55,5.07-.32,7.4.68,2.34.99,4.3,2.7,5.62,4.87,1.08-1.78,2.6-3.25,4.42-4.27,1.81-1.02,3.86-1.56,5.94-1.57.49,0,.95.19,1.3.54.34.34.54.81.54,1.3s-.19.95-.54,1.3c-.34.34-.81.54-1.3.54-2.26,0-4.43.9-6.02,2.5-1.6,1.6-2.5,3.76-2.5,6.02v5.07h5.65l2.47-5.07c-.54-.94-.75-2.03-.61-3.11.15-1.07.64-2.07,1.41-2.83.77-.76,1.77-1.25,2.85-1.38,1.08-.13,2.17.09,3.1.64.93.55,1.66,1.39,2.07,2.4.41,1.01.47,2.12.18,3.16-.29,1.04-.92,1.96-1.79,2.61-.87.65-1.93,1-3.01.98-.42,0-.83-.07-1.23-.18l-2.64,5.42c-.15.31-.39.57-.68.75-.29.18-.63.28-.97.28h-6.8v6.69h9.47c.28-1.09.92-2.05,1.82-2.71.9-.67,2.01-1,3.13-.94,1.12.06,2.19.5,3.01,1.26.83.76,1.37,1.78,1.53,2.89.16,1.11-.07,2.24-.65,3.2-.58.96-1.48,1.69-2.53,2.06s-2.21.37-3.27-.01ZM156.21,60.36c-.2-.13-.43-.2-.66-.2-.16,0-.31.03-.46.09-.14.06-.28.15-.39.26s-.2.24-.26.39c-.06.14-.09.3-.09.46,0,.24.07.47.2.66.13.2.32.35.53.44.22.09.46.11.69.07.23-.05.44-.16.61-.33.17-.17.28-.38.33-.61.05-.23.02-.47-.07-.69-.09-.22-.24-.4-.44-.53ZM154.37,41.35c-.2-.13-.43-.2-.66-.2-.31,0-.62.13-.84.35-.22.22-.35.52-.35.84,0,.24.07.47.2.66.13.2.32.35.53.44.22.09.46.11.69.07s.44-.16.61-.33c.17-.17.28-.38.33-.61.05-.23.02-.47-.07-.69-.09-.22-.24-.4-.44-.53ZM156.09,79.33c-.2-.13-.43-.2-.66-.2-.32,0-.62.13-.84.35-.22.22-.35.53-.35.84,0,.24.07.47.2.66.13.2.32.35.53.44.22.09.46.11.69.07s.44-.16.61-.33c.17-.17.28-.38.33-.61.05-.23.02-.47-.07-.69-.09-.22-.24-.4-.44-.53ZM123.86,85.87c1.51,1.22,3.39,1.89,5.34,1.9,1.13,0,2.24-.21,3.29-.64,1.04-.43,1.99-1.06,2.79-1.85.8-.8,1.43-1.74,1.86-2.78.43-1.04.65-2.16.65-3.29v-34.52c.03-2.13-.73-4.19-2.14-5.78-1.41-1.59-3.36-2.6-5.47-2.83-2.11-.23-4.24.34-5.95,1.6-1.71,1.26-2.9,3.11-3.32,5.19,1.94.05,3.85.56,5.55,1.49,1.7.93,3.16,2.26,4.24,3.88.14.2.23.43.28.67.05.24.05.48,0,.72-.05.24-.14.46-.27.67s-.31.38-.51.51c-.2.13-.43.23-.67.28-.24.05-.48.05-.72,0-.24-.05-.46-.14-.67-.27s-.38-.31-.51-.51c-.78-1.16-1.83-2.11-3.06-2.76-1.23-.66-2.61-1-4-1-.6.01-1.21.09-1.79.22-.23.05-.45.11-.67.18-.46.14-.9.31-1.33.52-1.18.58-2.2,1.42-3,2.46-.79,1.04-1.34,2.25-1.58,3.54-.25,1.29-.19,2.61.16,3.88.35,1.26.99,2.43,1.87,3.4.3.34.47.77.47,1.23s-.17.89-.47,1.23c-.76.84-1.34,1.83-1.71,2.9-.37,1.07-.52,2.21-.45,3.34.08,1.13.38,2.24.89,3.25.51,1.01,1.22,1.92,2.08,2.65,1.71,1.39,3.89,2.08,6.09,1.94,2.2-.14,4.27-1.11,5.79-2.71.33-.36.78-.58,1.27-.61.49-.03.96.14,1.32.47.36.33.58.78.61,1.27.03.49-.14.96-.47,1.32-1.11,1.22-2.46,2.21-3.96,2.9-1.5.69-3.13,1.07-4.78,1.12.41,1.9,1.45,3.6,2.96,4.82Z"/>
      <path class="st1" d="M169.02,48.87c1.12,1.88,1.71,4.03,1.71,6.22.01,2.46-.73,4.87-2.12,6.9.99,1.44,1.67,3.08,1.97,4.8.3,1.72.23,3.49-.21,5.18-.44,1.69-1.24,3.27-2.35,4.63-1.11,1.36-2.49,2.46-4.06,3.23-.25.12-.53.19-.81.18-.41,0-.81-.14-1.14-.4s-.55-.62-.64-1.02c-.09-.4-.05-.82.13-1.2.18-.37.47-.68.84-.86,1.18-.58,2.21-1.42,3.01-2.47.8-1.04,1.35-2.26,1.6-3.55.25-1.29.2-2.62-.16-3.89-.35-1.27-.99-2.43-1.88-3.41-.3-.34-.47-.77-.47-1.23s.17-.89.47-1.23c.86-.96,1.49-2.09,1.84-3.33.35-1.23.42-2.53.2-3.8-.22-1.27-.72-2.47-1.48-3.51-.75-1.04-1.73-1.9-2.86-2.51-.21-.12-.4-.27-.55-.46-.15-.19-.26-.4-.33-.64-.07-.23-.09-.47-.06-.71.03-.24.1-.47.21-.68.12-.21.27-.4.46-.55.19-.15.4-.26.64-.33.23-.07.47-.09.71-.06.24.03.47.1.68.22,1.92,1.05,3.52,2.6,4.64,4.48Z"/>
    </g>
    <g>
      <path class="st2" d="M176.77,156.15c-1.19,0-2.33-.47-3.17-1.31-.84-.84-1.31-1.98-1.31-3.17v-22.74c0-1.19.47-2.33,1.31-3.17.84-.84,1.98-1.31,3.17-1.31s2.33.47,3.17,1.31c.84.84,1.31,1.98,1.31,3.17v22.7c0,.59-.11,1.18-.33,1.73-.22.55-.55,1.05-.97,1.47-.42.42-.91.75-1.46.98-.55.23-1.13.34-1.72.34Z"/>
      <path class="st2" d="M29.54,156.15c-1.19,0-2.33-.47-3.17-1.31-.84-.84-1.31-1.98-1.31-3.17v-79.44c0-4.2,1.67-8.23,4.64-11.2,2.96-2.97,6.98-4.64,11.17-4.65h28.25c1.19,0,2.33.47,3.17,1.31.84.84,1.31,1.98,1.31,3.17s-.47,2.33-1.31,3.17c-.84.84-1.98,1.31-3.17,1.31h-28.25c-1.82,0-3.56.73-4.84,2.02-1.29,1.29-2.01,3.03-2.01,4.85v79.44c0,.59-.12,1.17-.34,1.72s-.55,1.04-.97,1.46c-.42.42-.91.75-1.45.97-.54.23-1.13.34-1.71.34Z"/>
      <path class="st2" d="M165.43,190.21H40.87c-7.19,0-14.09-2.88-19.17-7.97-5.09-5.1-7.95-12.01-7.96-19.21v-11.36c0-1.19.47-2.33,1.31-3.17.84-.84,1.98-1.31,3.17-1.31h65.42c.79,0,1.56.21,2.24.61.68.4,1.25.97,1.64,1.65,1.56,2.78,3.82,5.1,6.57,6.71,2.75,1.61,5.87,2.46,9.05,2.46s6.31-.85,9.05-2.46c2.75-1.61,5.01-3.93,6.57-6.71.39-.69.96-1.26,1.64-1.66.68-.4,1.46-.61,2.25-.6h65.42c1.19,0,2.33.47,3.17,1.31.84.84,1.31,1.98,1.31,3.17v11.36c0,7.21-2.87,14.12-7.96,19.21-5.09,5.1-11.98,7.96-19.17,7.97ZM22.7,156.11v6.91c0,4.83,1.92,9.46,5.33,12.87,3.41,3.41,8.03,5.34,12.85,5.34h124.56c4.82,0,9.44-1.93,12.85-5.34,3.41-3.41,5.32-8.04,5.33-12.87v-6.87h-58.51c-2.48,3.53-5.77,6.4-9.59,8.39-3.82,1.99-8.06,3.02-12.36,3.02s-8.54-1.04-12.36-3.02c-3.82-1.99-7.11-4.86-9.59-8.39l-58.49-.04Z"/>
      <path class="st2" d="M80.6,120.17c-.76,0-1.51-.19-2.18-.56-.67-.37-1.23-.9-1.63-1.55-.4-.65-.63-1.39-.67-2.15-.04-.76.12-1.52.46-2.2l14.65-29.82c-3.85-9.2-5.01-19.3-3.35-29.13,1.66-9.83,6.07-18.99,12.72-26.4,6.65-7.42,15.27-12.79,24.84-15.48,9.58-2.7,19.72-2.62,29.25.24l.43.14c7.07,2.08,13.63,5.61,19.25,10.38,5.62,4.77,10.19,10.67,13.4,17.32,3.21,6.65,4.99,13.9,5.23,21.28.24,7.38-1.06,14.73-3.83,21.58-2.77,6.84-6.93,13.03-12.23,18.16-5.3,5.13-11.61,9.09-18.53,11.63-6.92,2.54-14.29,3.59-21.65,3.1-7.35-.49-14.52-2.53-21.04-5.97l-33.97,9.22c-.38.13-.78.2-1.18.22ZM139.69,19.87c-7.33.01-14.54,1.88-20.96,5.42-6.42,3.54-11.84,8.65-15.77,14.86-3.93,6.2-6.23,13.3-6.7,20.63-.47,7.33.92,14.66,4.03,21.31.3.61.45,1.27.45,1.95s-.15,1.34-.45,1.95l-11.19,22.75,26.09-7.18c1.15-.3,2.37-.14,3.4.45,2.83,1.63,5.83,2.93,8.95,3.88,11.08,3.07,22.92,1.64,32.96-3.97,10.04-5.61,17.48-14.95,20.7-26.01,3.23-11.06,1.98-22.95-3.46-33.09-5.44-10.15-14.65-17.74-25.64-21.14l-.29-.11c-3.94-1.13-8.02-1.7-12.12-1.69h-.02Z"/>
    </g>
  </g>
  <g>
    <path class="st2" d="M380.64,89.2h-10.62l-1.52,6.69h-6.16l7.45-31.24h11.07l7.45,31.24h-6.16l-1.52-6.69ZM371.26,83.58h8.08l-3.62-15.98h-.8l-3.66,15.98Z"/>
    <path class="st2" d="M391.75,64.65h22.49v5.62h-8.3v25.62h-5.89v-25.62h-8.3v-5.62Z"/>
    <path class="st2" d="M387.55,142.26h-10.26l-1.43-23.74v-4.28h-1.07v4.28l-1.43,23.74h-10.26l-1.07-31.24h5.35l.71,23.74v4.02h1.07v-4.02l1.43-23.74h9.46l1.43,23.74v4.02h1.07v-4.02l.71-23.74h5.36l-1.07,31.24Z"/>
    <path class="st2" d="M391.48,123.16c0-4.05,1.02-7.19,3.06-9.42,2.04-2.23,4.86-3.35,8.46-3.35s6.42,1.12,8.46,3.35c2.04,2.23,3.06,5.37,3.06,9.42v6.96c0,4.17-1.02,7.33-3.06,9.51-2.04,2.17-4.86,3.26-8.46,3.26s-6.42-1.09-8.46-3.26c-2.04-2.17-3.06-5.34-3.06-9.51v-6.96ZM402.99,137.53c1.07,0,1.96-.17,2.68-.51.71-.34,1.29-.83,1.74-1.45.45-.62.76-1.37.94-2.23.18-.86.27-1.81.27-2.86v-7.68c0-.98-.1-1.9-.31-2.77-.21-.86-.54-1.61-.98-2.23-.45-.62-1.03-1.12-1.74-1.5-.71-.37-1.58-.56-2.59-.56s-1.87.19-2.59.56c-.71.37-1.29.87-1.74,1.5-.45.62-.77,1.37-.98,2.23-.21.86-.31,1.79-.31,2.77v7.68c0,1.04.09,1.99.27,2.86.18.86.49,1.61.94,2.23.45.62,1.03,1.11,1.74,1.45.71.34,1.61.51,2.68.51Z"/>
    <path class="st2" d="M441.24,142.26h-5.89v-9.37c0-.71-.19-1.29-.56-1.74s-.99-.67-1.85-.67h-6.78v11.78h-5.89v-31.24h11.96c1.61,0,3.02.22,4.24.67,1.22.45,2.24,1.06,3.06,1.85.82.79,1.44,1.7,1.88,2.74.43,1.04.65,2.16.65,3.35v1.07c0,1.28-.34,2.48-1.03,3.59s-1.74,1.97-3.17,2.57v.8c1.04.12,1.87.52,2.48,1.21.61.68.92,1.55.92,2.59v10.8ZM426.16,124.86h5.62c1.43,0,2.51-.33,3.26-1,.74-.67,1.12-1.61,1.12-2.83v-.54c0-1.04-.37-1.94-1.12-2.7-.74-.76-1.83-1.14-3.26-1.14h-5.62v8.21Z"/>
    <path class="st2" d="M454,142.26h-5.89v-31.24h5.89v12.81h1.29l8.26-12.81h6.65v.27l-9.64,14.95v.8l10.17,14.95v.27h-6.92l-8.52-12.81h-1.29v12.81Z"/>
    <path class="st2" d="M490.24,138.65c0,.6-.11,1.15-.33,1.67-.22.52-.53.97-.92,1.34-.39.37-.84.67-1.36.89s-1.06.33-1.63.33c-.6,0-1.15-.11-1.65-.33s-.95-.52-1.34-.89c-.39-.37-.69-.82-.92-1.34-.22-.52-.33-1.08-.33-1.67s.11-1.15.33-1.67c.22-.52.53-.97.92-1.34.39-.37.83-.67,1.34-.89s1.06-.33,1.65-.33c.56,0,1.11.11,1.63.33s.97.52,1.36.89c.39.37.69.82.92,1.34.22.52.33,1.08.33,1.67ZM488.95,111.02v21.78h-5.89v-21.78h5.89Z"/>
  </g>
</svg>